<?xml version="1.0" encoding="UTF-8"?>
<svg width="42px" height="43px" viewBox="0 0 42 43" version="1.1" xmlns="http://www.w3.org/2000/svg" xmlns:xlink="http://www.w3.org/1999/xlink">
    <title>Icons/attention</title>
    <defs>
        <path d="M4.41344402,26.9037433 C4.99169872,26.9037433 5.46790848,27.3785955 5.46790848,27.9743192 L5.46790848,27.9743192 L5.46790848,37.0655807 L14.2182628,37.0655807 C14.8050213,37.0655807 15.2727273,37.5404329 15.2727273,38.153424 L15.2727273,38.153424 L15.2727273,41.5550925 C15.2727273,42.1421826 14.8050213,42.6256684 14.2182628,42.6256684 L14.2182628,42.6256684 L2.73820611,42.6256684 C1.22453938,42.6256684 1.24078525e-12,41.3737853 1.24078525e-12,39.8456246 L1.24078525e-12,39.8456246 L1.24078525e-12,27.9743192 C1.24078525e-12,27.3872292 0.467706013,26.9037433 1.05446447,26.9037433 L1.05446447,26.9037433 Z M40.9177716,26.9037433 C41.5018314,26.9037433 41.9828218,27.3877608 42,27.9841395 L42,27.9841395 L42,39.8425679 C42,41.3810521 40.7545784,42.6256684 39.2343052,42.6256684 L39.2343052,42.6256684 L28.0169218,42.6256684 C27.4328621,42.6256684 26.9518717,42.1502941 26.9518717,41.5539154 L26.9518717,41.5539154 L26.9518717,38.1485067 C26.9518717,37.5607712 27.4242729,37.0767537 28.0169218,37.0767537 L28.0169218,37.0767537 L36.4686104,37.0767537 L36.4686104,27.9754963 C36.4686104,27.3877608 36.9410116,26.9037433 37.5336605,26.9037433 L37.5336605,26.9037433 Z M15.2011979,13.1121153 C15.6116756,12.6972693 16.2817024,12.6911684 16.6982055,13.1121262 L16.6982055,13.1121262 L20.9779262,17.4376193 L25.2455743,13.1243278 C25.6560412,12.709471 26.326068,12.7033701 26.7425821,13.1243169 L26.7425821,13.1243169 L29.132937,15.5402591 C29.5434038,15.955116 29.5494401,16.6323088 29.132937,17.0532666 L29.132937,17.0532666 L24.8592526,21.3726588 L29.1269007,25.6859502 C29.5373676,26.1008071 29.5434038,26.778 29.1269007,27.1989577 L29.1269007,27.1989577 L26.736546,29.6149001 C26.3200317,30.0358467 25.6500049,30.0419475 25.2335018,29.6209898 L25.2335018,29.6209898 L20.9537811,25.2954967 L16.686133,29.6087881 C16.2756661,30.023645 15.6056393,30.0297458 15.1891252,29.6087991 L15.1891252,29.6087991 L12.7987703,27.1928568 C12.3883035,26.778 12.3822672,26.1008071 12.7987703,25.6798494 L12.7987703,25.6798494 L17.078491,21.3543563 L12.8108429,17.0410649 C12.400376,16.626208 12.3943398,15.9490151 12.8108429,15.5280574 L12.8108429,15.5280574 Z M14.2182628,0.176470588 C14.7965175,0.176470588 15.2727273,0.648557512 15.2727273,1.24081202 L15.2727273,1.24081202 L15.2727273,4.63125447 C15.2727273,5.21492558 14.8050213,5.6955959 14.2182628,5.6955959 L14.2182628,5.6955959 L5.46790848,5.6955959 L5.46790848,13.9356586 C5.46790848,14.5193297 5.00020247,15 4.41344402,15 L4.41344402,15 L1.06296821,15 C0.484713505,15 0.0085037457,14.5279131 1.24078525e-12,13.9356586 L1.24078525e-12,13.9356586 L1.24078525e-12,2.94032494 C1.24078525e-12,1.41247999 1.23304313,0.176470588 2.73820611,0.176470588 L2.73820611,0.176470588 Z M39.239707,0.176470588 C40.7703121,0.176470588 42.0085544,1.4131961 42,2.94192625 L42,2.94192625 L42,13.9350419 C42,14.5190512 41.5270157,15 40.9336913,15 L40.9336913,15 L37.5457227,15 C36.9609971,15 36.4794584,14.5276396 36.4794584,13.9350419 L36.4794584,13.9350419 L36.4794584,5.69020517 L28.0181359,5.69020517 C27.4334103,5.69020517 26.9518717,5.21784473 26.9518717,4.62524709 L26.9518717,4.62524709 L26.9518717,1.24142867 C26.9518717,0.657419399 27.4248114,0.176470588 28.0181359,0.176470588 L28.0181359,0.176470588 Z" id="path-1"></path>
    </defs>
    <g id="popups" stroke="none" stroke-width="1" fill="none" fill-rule="evenodd">
        <g id="ex2_popups" transform="translate(-144.000000, -691.000000)">
            <g id="POPUP_error-Copy" transform="translate(71.000000, 549.000000)">
                <g id="Icons/abort" transform="translate(58.000000, 127.000000)">
                    <g id="focus" transform="translate(15.000000, 12.000000)">
                        <g id="UI/Color/Flat/Dark-2" transform="translate(0.000000, 2.823529)">
                            <mask id="mask-2" fill="white">
                                <use xlink:href="#path-1"></use>
                            </mask>
                            <use id="Mask" fill="#000000" fill-rule="nonzero" xlink:href="#path-1"></use>
                            <g mask="url(#mask-2)" fill="#333F52" id="Base">
                                <g transform="translate(-15.000000, -15.000000)">
                                    <rect x="0" y="0" width="72" height="72"></rect>
                                </g>
                            </g>
                        </g>
                    </g>
                </g>
            </g>
        </g>
    </g>
</svg>