<?xml version="1.0" encoding="UTF-8"?>
<svg width="42px" height="42px" viewBox="0 0 42 42" version="1.1" xmlns="http://www.w3.org/2000/svg" xmlns:xlink="http://www.w3.org/1999/xlink">
    <title>Icons/attention</title>
    <defs>
        <path d="M21.0081031,-8.41993142e-13 C23.7190993,-8.41993142e-13 26.1365481,1.53002024 27.4747787,4.10838768 L27.4747787,4.10838768 L40.9952246,29.7220598 C42.3420889,32.2720935 42.3334552,35.3226895 40.9779571,37.8821678 C39.6138252,40.4605352 37.1877427,42 34.4853803,42 L34.4853803,42 L7.47902351,42 C4.78529483,42 2.37647977,40.4794243 1.02961543,37.9482797 C-0.334516404,35.3888014 -0.34315015,32.3193164 1.00371419,29.740949 L1.00371419,29.740949 L14.5414275,4.09894311 C15.8796581,1.53946481 18.297107,-8.41993142e-13 21.0081031,-8.41993142e-13 Z M21.0081031,3.70227119 C19.5230989,3.70227119 18.2107695,4.5333933 17.4769011,5.94063414 L17.4769011,5.94063414 L3.93918775,31.5731954 C3.19668561,32.9898808 3.20531936,34.6710142 3.94782149,36.078255 C4.68168988,37.4666067 6.00265299,38.2882842 7.47038977,38.2882842 L7.47038977,38.2882842 L34.4767465,38.2882842 C35.9617508,38.2882842 37.2913476,37.4477176 38.0424835,36.0310322 C38.7849856,34.6237913 38.7936194,32.9615471 38.0683847,31.58264 L38.0683847,31.58264 L24.5393051,5.9500787 C23.8054367,4.54283787 22.4844736,3.70227119 21.0081031,3.70227119 Z M20.9994694,29.5142793 C22.1822925,29.5142793 23.1579058,30.5815156 23.1061033,31.932089 C23.1579058,33.1598831 22.1304901,34.236564 20.9994694,34.236564 C19.82528,34.236564 18.8410329,33.1598831 18.8410329,31.8754216 C18.8410329,30.5909602 19.82528,29.5142793 20.9994694,29.5142793 Z M20.4641771,12.93906 C21.4915929,12.6746121 22.5190086,13.2129526 22.9593297,14.2707443 C23.1061033,14.6485271 23.1579058,15.0263099 23.1579058,15.4513155 C23.1061033,16.6318867 23.0111321,17.8124578 22.9593297,18.993029 L22.9593297,18.993029 L22.6657823,24.4614347 C22.6139798,25.0564425 22.6139798,25.594783 22.6139798,26.1803463 C22.5708111,27.1531369 21.8801114,27.8992579 20.9994694,27.8992579 C20.1188273,27.8992579 19.4367614,27.2003598 19.3849589,26.2370137 C19.2381852,23.3941983 19.0914116,20.6080504 18.9446379,17.765235 C18.8928354,17.019114 18.8496667,16.2635485 18.7978642,15.5174275 C18.7978642,14.2801889 19.4367614,13.2601754 20.4641771,12.93906 Z" id="path-1"></path>
    </defs>
    <g id="popups" stroke="none" stroke-width="1" fill="none" fill-rule="evenodd">
        <g id="ex2_popups" transform="translate(-144.000000, -250.000000)">
            <g id="POPUP_log-in" transform="translate(71.000000, 111.000000)">
                <g id="Icons/attention" transform="translate(58.000000, 127.000000)">
                    <g id="warning" transform="translate(15.000000, 11.934783)">
                        <g id="UI/Color/Flat/Dark-2" transform="translate(0.000000, 0.065217)">
                            <mask id="mask-2" fill="white">
                                <use xlink:href="#path-1"></use>
                            </mask>
                            <use id="Mask" fill="#000000" fill-rule="nonzero" xlink:href="#path-1"></use>
                            <g mask="url(#mask-2)" fill="#333F52" id="Base">
                                <g transform="translate(-15.000000, -12.000000)">
                                    <rect x="0" y="0" width="72" height="72"></rect>
                                </g>
                            </g>
                        </g>
                    </g>
                </g>
            </g>
        </g>
    </g>
</svg>