<?xml version="1.0" encoding="UTF-8"?>
<svg width="42px" height="42px" viewBox="0 0 42 42" version="1.1" xmlns="http://www.w3.org/2000/svg" xmlns:xlink="http://www.w3.org/1999/xlink">
    <title>Icons/attention</title>
    <defs>
        <path d="M22.3457143,30.8742857 L22.3457143,34.2685714 C23.88,34.8171429 24.9857143,36.2828571 24.9857143,38.0142857 C24.9857143,40.2171429 23.2028571,42 21,42 C18.7971429,42 17.0142857,40.2171429 17.0142857,38.0142857 C17.0142857,36.2742857 18.1371429,34.7914286 19.6971429,34.2514286 L19.6971429,34.2514286 L19.6971429,30.8828571 C20.1257143,30.9342857 20.5628571,30.9685714 21,30.9685714 C21.4542857,30.9685714 21.9085714,30.9342857 22.3457143,30.8742857 L22.3457143,30.8742857 Z M21,36.5742857 C20.2028571,36.5742857 19.56,37.2171429 19.56,38.0142857 C19.56,38.8114286 20.2028571,39.4542857 21,39.4542857 C21.7971429,39.4542857 22.44,38.8114286 22.44,38.0142857 C22.44,37.2171429 21.7971429,36.5742857 21,36.5742857 Z M28.9285714,27.0342857 L31.3285714,29.4342857 C32.8114286,28.7314286 34.6285714,28.9971429 35.8457143,30.2142857 C37.4057143,31.7657143 37.4057143,34.2857143 35.8457143,35.8457143 C34.2942857,37.4057143 31.7742857,37.4057143 30.2142857,35.8457143 C28.98,34.6114286 28.7228571,32.7771429 29.4428571,31.2942857 L29.4428571,31.2942857 L27.06,28.9114286 C27.7628571,28.3714286 28.3885714,27.7371429 28.9285714,27.0342857 L28.9285714,27.0342857 Z M13.0714286,27.0257143 C13.6028571,27.7285714 14.2371429,28.3628571 14.9314286,28.8942857 L14.9314286,28.8942857 L12.5485714,31.2771429 C13.2685714,32.76 13.02,34.6028571 11.7857143,35.8371429 C10.2342857,37.3971429 7.71428571,37.3971429 6.15428571,35.8371429 C4.59428571,34.2857143 4.59428571,31.7657143 6.15428571,30.2057143 C7.38,28.9885714 9.19714286,28.7314286 10.6714286,29.4257143 L10.6714286,29.4257143 Z M34.0542857,32.0142857 C33.4885714,31.4485714 32.58,31.4485714 32.0142857,32.0142857 C31.4485714,32.5714286 31.4485714,33.4885714 32.0142857,34.0542857 C32.58,34.62 33.4885714,34.62 34.0542857,34.0542857 C34.62,33.4885714 34.62,32.58 34.0542857,32.0142857 Z M9.98571429,32.0057143 C9.42,31.44 8.51142857,31.44 7.94571429,32.0057143 C7.38,32.5714286 7.38,33.48 7.94571429,34.0457143 C8.51142857,34.6114286 9.42,34.6114286 9.98571429,34.0457143 C10.5514286,33.4885714 10.5514286,32.5714286 9.98571429,32.0057143 Z M21,13.0885714 C25.3628571,13.0885714 28.9114286,16.6371429 28.9114286,21 C28.9114286,25.3628571 25.3628571,28.9114286 21,28.9114286 C16.6371429,28.9114286 13.0885714,25.3628571 13.0885714,21 C13.0885714,16.6371429 16.6371429,13.0885714 21,13.0885714 Z M21,15.4885714 C17.9571429,15.4885714 15.4885714,17.9657143 15.4885714,21 C15.4885714,24.0428571 17.9657143,26.5114286 21,26.5114286 C24.0342857,26.5114286 26.5114286,24.0342857 26.5114286,21 C26.5114286,17.9571429 24.0428571,15.4885714 21,15.4885714 Z M38.0142857,17.0142857 C40.2171429,17.0142857 42,18.7971429 42,21 C42,23.2028571 40.2171429,24.9857143 38.0142857,24.9857143 C36.2742857,24.9857143 34.7914286,23.8628571 34.2514286,22.3028571 L34.2514286,22.3028571 L30.8828571,22.3028571 C30.9342857,21.8742857 30.9685714,21.4371429 30.9685714,21 C30.9685714,20.5457143 30.9342857,20.0914286 30.8742857,19.6542857 L30.8742857,19.6542857 L34.2685714,19.6542857 C34.8171429,18.1114286 36.2914286,17.0142857 38.0142857,17.0142857 Z M3.98571429,17.0142857 C5.70857143,17.0142857 7.17428571,18.12 7.73142857,19.6542857 L7.73142857,19.6542857 L11.1257143,19.6542857 C11.0657143,20.0914286 11.0314286,20.5457143 11.0314286,21 C11.0314286,21.4457143 11.0571429,21.8742857 11.1171429,22.3028571 L11.1171429,22.3028571 L7.74857143,22.3028571 C7.20857143,23.8628571 5.73428571,24.9857143 3.98571429,24.9857143 C1.78285714,24.9857143 1.40509826e-12,23.2028571 1.40509826e-12,21 C1.40509826e-12,18.7971429 1.78285714,17.0142857 3.98571429,17.0142857 Z M23.2542857,18.0428571 L24.6257143,19.4228571 L21.4542857,22.5771429 L20.0742857,23.9485714 L18.7028571,22.5685714 L17.3742857,21.24 L18.7542857,19.8685714 L20.0828571,21.1971429 L23.2542857,18.0428571 Z M38.0142857,19.56 C37.2171429,19.56 36.5742857,20.2028571 36.5742857,21 C36.5742857,21.7971429 37.2171429,22.44 38.0142857,22.44 C38.8114286,22.44 39.4542857,21.7971429 39.4542857,21 C39.4542857,20.2028571 38.8114286,19.56 38.0142857,19.56 Z M3.98571429,19.56 C3.18857143,19.56 2.54571429,20.2028571 2.54571429,21 C2.54571429,21.7971429 3.18857143,22.44 3.98571429,22.44 C4.78285714,22.44 5.42571429,21.7971429 5.42571429,21 C5.42571429,20.2028571 4.78285714,19.56 3.98571429,19.56 Z M6.15428571,6.15428571 C7.70571429,4.59428571 10.2257143,4.59428571 11.7857143,6.15428571 C13.0114286,7.38 13.2685714,9.19714286 12.5742857,10.6714286 L12.5742857,10.6714286 L14.9742857,13.0714286 C14.2714286,13.6028571 13.6371429,14.2285714 13.0971429,14.9314286 L13.0971429,14.9314286 L10.7142857,12.5485714 C9.23142857,13.2685714 7.38857143,13.02 6.15428571,11.7857143 C4.59428571,10.2342857 4.59428571,7.71428571 6.15428571,6.15428571 Z M30.2142857,6.15428571 C31.7657143,4.59428571 34.2857143,4.59428571 35.8457143,6.15428571 C37.4057143,7.70571429 37.4057143,10.2257143 35.8457143,11.7857143 C34.6114286,13.02 32.7685714,13.2685714 31.2857143,12.5485714 L31.2857143,12.5485714 L28.9028571,14.9314286 C28.3628571,14.2285714 27.7285714,13.6028571 27.0342857,13.0714286 L27.0342857,13.0714286 L29.4342857,10.6714286 C28.7314286,9.18857143 28.9971429,7.37142857 30.2142857,6.15428571 Z M21,4.08562073e-14 C23.2028571,4.08562073e-14 24.9857143,1.78285714 24.9857143,3.98571429 C24.9857143,5.70857143 23.88,7.17428571 22.3457143,7.73142857 L22.3457143,7.73142857 L22.3457143,11.1257143 C21.9085714,11.0657143 21.4542857,11.0314286 21,11.0314286 C20.5628571,11.0314286 20.1257143,11.0657143 19.6971429,11.1171429 L19.6971429,11.1171429 L19.6971429,7.74857143 C18.1371429,7.20857143 17.0142857,5.73428571 17.0142857,3.98571429 C17.0142857,1.78285714 18.7971429,4.08562073e-14 21,4.08562073e-14 Z M34.0542857,7.95428571 C33.4885714,7.38857143 32.58,7.38857143 32.0142857,7.95428571 C31.4485714,8.51142857 31.4485714,9.42857143 32.0142857,9.99428571 C32.58,10.56 33.4885714,10.56 34.0542857,9.99428571 C34.62,9.42857143 34.62,8.52 34.0542857,7.95428571 Z M9.98571429,7.94571429 C9.42,7.38 8.51142857,7.38 7.94571429,7.94571429 C7.38,8.51142857 7.38,9.42 7.94571429,9.98571429 C8.51142857,10.5514286 9.42,10.5514286 9.98571429,9.98571429 C10.5514286,9.42857143 10.5514286,8.51142857 9.98571429,7.94571429 Z M21,2.54571429 C20.2028571,2.54571429 19.56,3.18857143 19.56,3.98571429 C19.56,4.78285714 20.2028571,5.42571429 21,5.42571429 C21.7971429,5.42571429 22.44,4.78285714 22.44,3.98571429 C22.44,3.18857143 21.7971429,2.54571429 21,2.54571429 Z" id="path-1"></path>
    </defs>
    <g id="popups" stroke="none" stroke-width="1" fill="none" fill-rule="evenodd">
        <g id="ex2_popups" transform="translate(-749.000000, -692.000000)">
            <g id="POPUP_error-Copy-2" transform="translate(676.000000, 549.000000)">
                <g id="Icons/-transffer" transform="translate(58.000000, 128.000000)">
                    <g id="share" transform="translate(15.000000, 15.000000)"></g>
                    <g id="UI/Color/Flat/Grey" transform="translate(15.000000, 15.000000)">
                        <mask id="mask-2" fill="white">
                            <use xlink:href="#path-1"></use>
                        </mask>
                        <use id="Mask" fill="#000000" fill-rule="nonzero" xlink:href="#path-1"></use>
                        <g id="UI/Color/Flat/Dark-2" mask="url(#mask-2)" fill="#333F52">
                            <g transform="translate(-15.000000, -15.000000)" id="Base">
                                <rect x="0" y="0" width="72" height="72"></rect>
                            </g>
                        </g>
                    </g>
                </g>
            </g>
        </g>
    </g>
</svg>