<?xml version="1.0" encoding="UTF-8"?>
<svg width="37px" height="42px" viewBox="0 0 37 42" version="1.1" xmlns="http://www.w3.org/2000/svg" xmlns:xlink="http://www.w3.org/1999/xlink">
    <title>Icons/attention</title>
    <defs>
        <path d="M18.3562538,-5.75539616e-13 C19.1875128,-5.75539616e-13 19.7616813,0.394205264 20.3101408,0.779840849 C23.8751275,3.27361763 27.0887574,4.78188125 30.4223628,5.5188737 C31.3307488,5.72454601 32.2819833,5.83595185 33.2846358,5.95592736 C33.5417262,5.99020608 33.7902469,6.01591512 34.0473373,6.05019384 C35.6841461,6.26443583 36.6525199,7.33564579 36.6525199,8.92103652 L36.6525199,8.92103652 L36.6525199,17.7392369 C36.6610896,19.6759845 36.6696593,21.6812895 36.5668231,23.6608855 C36.4297082,26.5831463 35.3499286,29.4025709 33.3531932,32.0420322 C31.0822281,35.1099776 28.0399918,37.6208937 24.0636605,39.7033259 C22.9581718,40.260355 21.8783922,40.7231177 20.8328912,41.1773108 L20.8328912,41.1773108 L19.5988574,41.7172006 C19.2132218,41.9057335 18.7675984,42 18.3134054,42 L18.3134054,42 L18.10883,41.9929386 C17.8376168,41.974291 17.5729851,41.919445 17.3193226,41.8371761 C17.2936135,41.8286064 17.2679045,41.8200367 17.2421955,41.811467 C12.2632116,39.9347072 8.32972863,37.4837788 5.21036523,34.321567 C2.68230973,31.7335238 1.13119771,29.0597837 0.471332381,26.1289533 C0.162823913,24.7663742 0.0171393593,23.5323403 0.0171393593,22.3582942 C-0.00856967966,19.3931851 -6.64357458e-13,16.3766578 0.00856967966,13.4543971 C0.00856967966,11.9889818 0.0171393593,10.5149969 0.0171393593,9.04958172 C0.0171393593,6.64150173 1.58539074,6.05876352 2.89655172,5.99877576 C7.33564579,5.73311569 11.637625,4.07916752 16.4109365,0.779840849 C16.9508264,0.402774944 17.5249949,-5.75539616e-13 18.3562538,-5.75539616e-13 Z M18.3562538,4.31054887 C13.3944093,7.67843297 8.81820037,9.4780657 4.0448888,9.93225872 C4.0448888,11.1063048 4.03631912,12.2803509 4.03631912,13.4629667 C4.02774944,16.3766578 4.01917976,19.3846154 4.0448888,22.3411549 C4.0448888,23.2409712 4.15629463,24.183636 4.39624566,25.2548459 C4.89328708,27.4572536 6.0673332,29.4454193 8.08120792,31.5021424 C10.7035299,34.1587431 14.045705,36.2583146 18.2791267,37.9036931 C18.5962049,37.7580086 18.9218527,37.6208937 19.2389308,37.4837788 C20.2330137,37.0467252 21.2613752,36.6096715 22.229749,36.1211998 C25.6233422,34.3472761 28.2199551,32.2134258 30.1395634,29.6253826 C31.673536,27.6029382 32.4619465,25.5976331 32.556213,23.4723526 C32.6504795,21.5955927 32.6419098,19.6417058 32.6333401,17.7478066 L32.6333401,17.7478066 L32.6333401,9.92368904 C31.6306876,9.80371353 30.5937564,9.66659865 29.5482555,9.4352173 C25.8033054,8.60395838 22.229749,6.97571924 18.3562538,4.31054887 Z M18.3562538,26.9687819 C19.5988574,26.9687819 20.6357886,27.9971434 20.5758009,29.3083044 C20.6272189,30.4909202 19.5474393,31.5278515 18.3562538,31.5278515 C17.1136503,31.5278515 16.076719,30.4909202 16.076719,29.2483167 C16.076719,28.0057131 17.1136503,26.9687819 18.3562538,26.9687819 Z M17.790655,10.9863293 C18.8704346,10.7292389 19.9587839,11.2434197 20.4215466,12.2803509 C20.5758009,12.6402775 20.6272189,13.0087737 20.6272189,13.4201183 C20.5758009,14.5513161 20.4729647,15.6910835 20.4215466,16.8308508 C20.3187105,18.5876352 20.2158743,20.3444195 20.1130382,22.1012038 C20.0616201,22.6668027 20.0616201,23.1895532 20.0616201,23.755152 C20.010202,24.6892471 19.2903489,25.4091002 18.3562538,25.4091002 C17.4307284,25.4091002 16.7023057,24.7406652 16.6508876,23.8065701 C16.4966333,21.0728423 16.3423791,18.3819629 16.1881249,15.6396654 C16.1367068,14.9198123 16.0852887,14.1913895 16.0338706,13.4715364 C16.0338706,12.2803509 16.7023057,11.2948378 17.790655,10.9863293 Z" id="path-1"></path>
    </defs>
    <g id="popups" stroke="none" stroke-width="1" fill="none" fill-rule="evenodd">
        <g id="ex2_popups" transform="translate(-752.000000, -253.000000)">
            <g id="POPUP_error" transform="translate(676.000000, 111.000000)">
                <g id="Icons/shield" transform="translate(58.000000, 127.000000)">
                    <g id="shield" transform="translate(18.000000, 15.000000)">
                        <g id="UI/Color/Flat/Grey">
                            <mask id="mask-2" fill="white">
                                <use xlink:href="#path-1"></use>
                            </mask>
                            <use id="Mask" fill="#000000" fill-rule="nonzero" xlink:href="#path-1"></use>
                            <g id="UI/Color/Flat/Dark-2" mask="url(#mask-2)" fill="#333F52">
                                <g transform="translate(-18.000000, -15.000000)" id="Base">
                                    <rect x="0" y="0" width="72" height="72"></rect>
                                </g>
                            </g>
                        </g>
                    </g>
                </g>
            </g>
        </g>
    </g>
</svg>